<?xml version="1.0" encoding="UTF-8" standalone="no"?>
<svg
   xmlns:dc="http://purl.org/dc/elements/1.1/"
   xmlns:cc="http://creativecommons.org/ns#"
   xmlns:rdf="http://www.w3.org/1999/02/22-rdf-syntax-ns#"
   xmlns:svg="http://www.w3.org/2000/svg"
   xmlns="http://www.w3.org/2000/svg"
   xmlns:sodipodi="http://sodipodi.sourceforge.net/DTD/sodipodi-0.dtd"
   xmlns:inkscape="http://www.inkscape.org/namespaces/inkscape"
   width="15.2797"
   height="14"
   viewBox="0 0 15.2797 14"
   fill="none"
   version="1.1"
   id="svg4"
   sodipodi:docname="like_active.svg"
   inkscape:version="1.0.2-2 (e86c870879, 2021-01-15)">
  <metadata
     id="metadata10">
    <rdf:RDF>
      <cc:Work
         rdf:about="">
        <dc:format>image/svg+xml</dc:format>
        <dc:type
           rdf:resource="http://purl.org/dc/dcmitype/StillImage" />
        <dc:title></dc:title>
      </cc:Work>
    </rdf:RDF>
  </metadata>
  <defs
     id="defs8" />
  <sodipodi:namedview
     pagecolor="#ffffff"
     bordercolor="#666666"
     borderopacity="1"
     objecttolerance="10"
     gridtolerance="10"
     guidetolerance="10"
     inkscape:pageopacity="0"
     inkscape:pageshadow="2"
     inkscape:window-width="1366"
     inkscape:window-height="705"
     id="namedview6"
     showgrid="false"
     fit-margin-top="0"
     fit-margin-left="0"
     fit-margin-right="0"
     fit-margin-bottom="0"
     inkscape:zoom="22.416667"
     inkscape:cx="8"
     inkscape:cy="7"
     inkscape:window-x="-8"
     inkscape:window-y="-8"
     inkscape:window-maximized="1"
     inkscape:current-layer="svg4" />
  <path
     d="M 7.6398,14 6.8568,13.2933 C 5.50705,12.0582 4.39291,10.9918 3.51432,10.0941 2.63574,9.1965 1.93543,8.3943 1.41337,7.6876 0.89131,6.9809 0.52524,6.3411 0.31514,5.7681 0.10505,5.1951 0,4.61573 0,4.03001 0,2.88404 0.38518,1.92588 1.15553,1.15553 1.92588,0.38518 2.87767,0 4.01091,0 4.7367,0 5.40837,0.1719 6.0259,0.51569 6.6435,0.85948 7.1814,1.35607 7.6398,2.00546 8.1746,1.31787 8.7412,0.81173 9.3397,0.48704 9.9382,0.16235 10.5812,0 11.2688,0 c 1.1332,0 2.085,0.38518 2.8553,1.15553 0.7704,0.77035 1.1556,1.72851 1.1556,2.87448 0,0.58572 -0.1051,1.16509 -0.3152,1.73809 -0.2101,0.573 -0.5761,1.2128 -1.0982,1.9195 -0.5221,0.7067 -1.2224,1.5089 -2.101,2.4065 -0.8785,0.8977 -1.9927,1.9641 -3.3424,3.1992 z"
     fill="#0266ff"
     id="path2" />
</svg>
