<?xml version="1.0" encoding="UTF-8" standalone="no"?>
<svg
   xmlns:dc="http://purl.org/dc/elements/1.1/"
   xmlns:cc="http://creativecommons.org/ns#"
   xmlns:rdf="http://www.w3.org/1999/02/22-rdf-syntax-ns#"
   xmlns:svg="http://www.w3.org/2000/svg"
   xmlns="http://www.w3.org/2000/svg"
   xmlns:sodipodi="http://sodipodi.sourceforge.net/DTD/sodipodi-0.dtd"
   xmlns:inkscape="http://www.inkscape.org/namespaces/inkscape"
   width="15.2797"
   height="14"
   viewBox="0 0 15.2797 14"
   fill="none"
   version="1.1"
   id="svg4"
   sodipodi:docname="like_hover.svg"
   inkscape:version="1.0.2-2 (e86c870879, 2021-01-15)">
  <metadata
     id="metadata10">
    <rdf:RDF>
      <cc:Work
         rdf:about="">
        <dc:format>image/svg+xml</dc:format>
        <dc:type
           rdf:resource="http://purl.org/dc/dcmitype/StillImage" />
        <dc:title></dc:title>
      </cc:Work>
    </rdf:RDF>
  </metadata>
  <defs
     id="defs8" />
  <sodipodi:namedview
     pagecolor="#ffffff"
     bordercolor="#666666"
     borderopacity="1"
     objecttolerance="10"
     gridtolerance="10"
     guidetolerance="10"
     inkscape:pageopacity="0"
     inkscape:pageshadow="2"
     inkscape:window-width="1366"
     inkscape:window-height="705"
     id="namedview6"
     showgrid="false"
     fit-margin-top="0"
     fit-margin-left="0"
     fit-margin-right="0"
     fit-margin-bottom="0"
     inkscape:zoom="38.428571"
     inkscape:cx="8"
     inkscape:cy="9.0817844"
     inkscape:window-x="-8"
     inkscape:window-y="-8"
     inkscape:window-maximized="1"
     inkscape:current-layer="svg4" />
  <path
     d="M 7.63984,14 6.85675,13.2933 C 5.51,12.0567 4.3966,10.9899 3.51654,10.093 2.63648,9.19606 1.93543,8.39427 1.41337,7.68759 0.891314,6.9809 0.525239,6.34106 0.315143,5.76808 0.105048,5.19509 0,4.61573 0,4.03001 0,2.88206 0.385175,1.92341 1.15553,1.15405 1.92588,0.384685 2.87767,0 4.01091,0 4.7367,0 5.40837,0.171896 6.02592,0.515689 6.64347,0.859482 7.18145,1.35607 7.63984,2.00546 8.17463,1.31787 8.74125,0.811733 9.3397,0.48704 9.93815,0.162347 10.5812,0 11.2688,0 c 1.1332,0 2.085,0.384685 2.8553,1.15405 0.7704,0.76936 1.1556,1.72801 1.1556,2.87596 0,0.58572 -0.1051,1.16508 -0.3152,1.73807 -0.2101,0.57298 -0.5761,1.21282 -1.0982,1.91951 -0.5221,0.70668 -1.2231,1.50847 -2.1032,2.40541 -0.88,0.8969 -1.99343,1.9637 -3.34018,3.2003 z m 0,-1.5089 C 8.92888,11.307 9.98966,10.2916 10.8222,9.44479 11.6547,8.59801 12.3161,7.8563 12.8063,7.21965 c 0.4902,-0.63666 0.834,-1.20414 1.0314,-1.70245 0.1973,-0.49832 0.296,-0.99312 0.296,-1.48442 0,-0.84223 -0.2674,-1.53392 -0.8022,-2.07507 -0.5348,-0.54116 -1.2209,-0.81173 -2.0584,-0.81173 -0.6561,0 -1.2633,0.20054 -1.82167,0.60163 C 8.89309,2.1487 8.44202,2.71214 8.09823,3.43793 H 7.16235 C 6.83129,2.72487 6.38658,2.16462 5.82824,1.75716 5.26988,1.3497 4.66267,1.14598 4.00662,1.14598 3.1691,1.14598 2.48295,1.41655 1.94816,1.95771 1.41337,2.49886 1.14598,3.19164 1.14598,4.03605 c 0,0.49256 0.09868,0.99033 0.29604,1.49328 0.19736,0.50296 0.54115,1.07595 1.03138,1.71896 0.49022,0.64302 1.15552,1.38473 1.9959,2.22511 0.84039,0.8404 1.89723,1.8463 3.17054,3.0177 z"
     fill="#0266ff"
     id="path2" />
</svg>
